<svg xmlns="http://www.w3.org/2000/svg" viewBox="0 0 900 550">
  <!-- Transparent background for dark/light mode adaptation -->

  <!-- ==================== BLOCKCHAIN LAYER (TOP) ==================== -->
  <!-- Main blockchain with larger, prominent blocks -->

  <!-- Genesis Block -->
  <g stroke="currentColor" stroke-width="1.8" fill="none">
    <rect x="80" y="25" width="50" height="38" rx="3"/>
    <line x1="87" y1="35" x2="117" y2="35"/>
    <line x1="87" y1="43" x2="110" y2="43"/>
    <line x1="87" y1="51" x2="120" y2="51"/>
    <circle cx="105" cy="35" r="2" fill="currentColor"/>
  </g>
  <line x1="130" y1="44" x2="160" y2="44" stroke="currentColor" stroke-width="1.5" stroke-dasharray="4,3"/>

  <!-- Block 2 -->
  <g stroke="currentColor" stroke-width="1.8" fill="none">
    <rect x="160" y="25" width="50" height="38" rx="3"/>
    <line x1="167" y1="35" x2="197" y2="35"/>
    <line x1="167" y1="43" x2="190" y2="43"/>
    <line x1="167" y1="51" x2="200" y2="51"/>
    <circle cx="185" cy="35" r="2" fill="currentColor"/>
  </g>
  <line x1="210" y1="44" x2="240" y2="44" stroke="currentColor" stroke-width="1.5" stroke-dasharray="4,3"/>

  <!-- Block 3 -->
  <g stroke="currentColor" stroke-width="1.8" fill="none">
    <rect x="240" y="25" width="50" height="38" rx="3"/>
    <line x1="247" y1="35" x2="277" y2="35"/>
    <line x1="247" y1="43" x2="270" y2="43"/>
    <line x1="247" y1="51" x2="280" y2="51"/>
    <circle cx="265" cy="35" r="2" fill="currentColor"/>
  </g>
  <line x1="290" y1="44" x2="320" y2="44" stroke="currentColor" stroke-width="1.5" stroke-dasharray="4,3"/>

  <!-- Block 4 -->
  <g stroke="currentColor" stroke-width="1.8" fill="none">
    <rect x="320" y="25" width="50" height="38" rx="3"/>
    <line x1="327" y1="35" x2="357" y2="35"/>
    <line x1="327" y1="43" x2="350" y2="43"/>
    <line x1="327" y1="51" x2="360" y2="51"/>
    <circle cx="345" cy="35" r="2" fill="currentColor"/>
  </g>

  <!-- Second blockchain (parallel chain - right side) -->
  <g stroke="currentColor" stroke-width="1.5" fill="none" opacity="0.7">
    <rect x="580" y="20" width="42" height="32" rx="2"/>
    <line x1="586" y1="29" x2="612" y2="29"/>
    <line x1="586" y1="37" x2="606" y2="37"/>
    <line x1="586" y1="44" x2="615" y2="44"/>
  </g>
  <line x1="622" y1="36" x2="648" y2="36" stroke="currentColor" stroke-width="1.2" stroke-dasharray="3,2"/>
  <g stroke="currentColor" stroke-width="1.5" fill="none" opacity="0.7">
    <rect x="648" y="20" width="42" height="32" rx="2"/>
    <line x1="654" y1="29" x2="680" y2="29"/>
    <line x1="654" y1="37" x2="674" y2="37"/>
    <line x1="654" y1="44" x2="683" y2="44"/>
  </g>
  <line x1="690" y1="36" x2="716" y2="36" stroke="currentColor" stroke-width="1.2" stroke-dasharray="3,2"/>
  <g stroke="currentColor" stroke-width="1.5" fill="none" opacity="0.7">
    <rect x="716" y="20" width="42" height="32" rx="2"/>
    <line x1="722" y1="29" x2="748" y2="29"/>
    <line x1="722" y1="37" x2="742" y2="37"/>
    <line x1="722" y1="44" x2="751" y2="44"/>
  </g>
  <line x1="758" y1="36" x2="784" y2="36" stroke="currentColor" stroke-width="1.2" stroke-dasharray="3,2"/>
  <g stroke="currentColor" stroke-width="1.5" fill="none" opacity="0.7">
    <rect x="784" y="20" width="42" height="32" rx="2"/>
    <line x1="790" y1="29" x2="816" y2="29"/>
    <line x1="790" y1="37" x2="810" y2="37"/>
    <line x1="790" y1="44" x2="819" y2="44"/>
  </g>

  <!-- ==================== BRIDGE / INTEROP ZONE ==================== -->
  <!-- Bridge connecting two chains -->
  <g stroke="currentColor" stroke-width="1" fill="none" opacity="0.5">
    <path d="M370,44 Q450,20 580,36"/>
    <circle cx="450" cy="28" r="6"/>
    <circle cx="450" cy="28" r="3"/>
    <line x1="420" y1="35" x2="444" y2="30"/>
    <line x1="456" y1="28" x2="480" y2="32"/>
  </g>

  <!-- ==================== NETWORK NODES (Validators/Miners) ==================== -->
  <!-- Large node cluster left -->
  <g stroke="currentColor" stroke-width="1.2" fill="none">
    <circle cx="50" cy="100" r="8"/>
    <circle cx="50" cy="100" r="4"/>
    <circle cx="75" cy="85" r="6"/>
    <circle cx="75" cy="85" r="3"/>
    <circle cx="30" cy="120" r="5"/>
    <circle cx="30" cy="120" r="2"/>
    <circle cx="70" cy="115" r="5"/>
    <circle cx="70" cy="115" r="2"/>
    <circle cx="45" cy="135" r="4"/>
    <line x1="50" y1="108" x2="50" y2="63"/>
    <line x1="56" y1="104" x2="70" y2="91"/>
    <line x1="44" y1="105" x2="34" y2="116"/>
    <line x1="56" y1="106" x2="66" y2="112"/>
    <line x1="50" y1="108" x2="47" y2="131"/>
    <line x1="35" y1="120" x2="65" y2="115"/>
    <line x1="75" y1="79" x2="80" y2="63"/>
  </g>

  <!-- Node cluster center -->
  <g stroke="currentColor" stroke-width="1" fill="none">
    <circle cx="420" cy="80" r="7"/>
    <circle cx="420" cy="80" r="3"/>
    <circle cx="445" cy="70" r="5"/>
    <circle cx="445" cy="70" r="2"/>
    <circle cx="395" cy="90" r="5"/>
    <circle cx="395" cy="90" r="2"/>
    <circle cx="430" cy="100" r="4"/>
    <circle cx="430" cy="100" r="2"/>
    <circle cx="405" cy="105" r="4"/>
    <line x1="420" y1="73" x2="420" y2="63"/>
    <line x1="427" y1="78" x2="441" y2="73"/>
    <line x1="413" y1="83" x2="400" y2="88"/>
    <line x1="423" y1="87" x2="427" y2="96"/>
    <line x1="400" y1="93" x2="407" y2="101"/>
    <line x1="426" y1="100" x2="409" y2="103"/>
  </g>

  <!-- Node cluster right -->
  <g stroke="currentColor" stroke-width="1" fill="none">
    <circle cx="850" cy="90" r="6"/>
    <circle cx="850" cy="90" r="3"/>
    <circle cx="870" cy="80" r="5"/>
    <circle cx="835" cy="105" r="4"/>
    <circle cx="865" cy="100" r="4"/>
    <line x1="850" y1="84" x2="850" y2="52"/>
    <line x1="855" y1="87" x2="866" y2="82"/>
    <line x1="845" y1="94" x2="838" y2="102"/>
    <line x1="854" y1="94" x2="862" y2="97"/>
  </g>

  <!-- ==================== WALLETS (Prominent) ==================== -->
  <!-- Main wallet 1 -->
  <g stroke="currentColor" stroke-width="1.5" fill="none">
    <rect x="120" y="95" width="40" height="28" rx="3"/>
    <path d="M152,102 v14 a4,4 0 0 1 -4,4 h-3"/>
    <circle cx="150" cy="109" r="4"/>
    <line x1="127" y1="103" x2="140" y2="103"/>
    <line x1="127" y1="109" x2="137" y2="109"/>
    <line x1="127" y1="115" x2="143" y2="115"/>
  </g>

  <!-- Main wallet 2 -->
  <g stroke="currentColor" stroke-width="1.5" fill="none">
    <rect x="200" y="100" width="38" height="26" rx="3"/>
    <path d="M230,106 v12 a3,3 0 0 1 -3,3 h-2"/>
    <circle cx="228" cy="113" r="3"/>
    <line x1="206" y1="107" x2="218" y2="107"/>
    <line x1="206" y1="113" x2="215" y2="113"/>
    <line x1="206" y1="119" x2="220" y2="119"/>
  </g>

  <!-- Hardware wallet -->
  <g stroke="currentColor" stroke-width="1.5" fill="none">
    <rect x="280" y="95" width="30" height="45" rx="4"/>
    <rect x="285" y="100" width="20" height="15" rx="1"/>
    <circle cx="295" cy="130" r="4"/>
    <line x1="288" y1="105" x2="302" y2="105"/>
    <line x1="288" y1="110" x2="298" y2="110"/>
  </g>

  <!-- Mobile wallet -->
  <g stroke="currentColor" stroke-width="1.4" fill="none">
    <rect x="340" y="98" width="22" height="38" rx="3"/>
    <rect x="344" y="103" width="14" height="22" rx="1"/>
    <circle cx="351" cy="130" r="2"/>
    <line x1="347" y1="108" x2="355" y2="108"/>
    <line x1="347" y1="113" x2="353" y2="113"/>
    <circle cx="351" cy="118" r="3"/>
    <path d="M349,118 l2,2 l3,-4" stroke-width="1"/>
  </g>

  <!-- More wallets scattered -->
  <g stroke="currentColor" stroke-width="1.2" fill="none">
    <rect x="500" y="75" width="30" height="22" rx="2"/>
    <circle cx="522" cy="86" r="3"/>
    <line x1="505" y1="82" x2="515" y2="82"/>
    <line x1="505" y1="88" x2="512" y2="88"/>
  </g>

  <g stroke="currentColor" stroke-width="1.2" fill="none">
    <rect x="760" y="70" width="28" height="20" rx="2"/>
    <circle cx="780" cy="80" r="3"/>
    <line x1="764" y1="76" x2="774" y2="76"/>
    <line x1="764" y1="82" x2="770" y2="82"/>
  </g>

  <!-- ==================== TOKENS / COINS ==================== -->
  <g stroke="currentColor" stroke-width="1.3" fill="none">
    <!-- Token 1 -->
    <circle cx="180" cy="155" r="12"/>
    <circle cx="180" cy="155" r="7"/>
    <path d="M177,151 v8 M183,151 v8 M178,155 h4"/>

    <!-- Token 2 -->
    <circle cx="250" cy="160" r="10"/>
    <circle cx="250" cy="160" r="6"/>
    <line x1="247" y1="157" x2="253" y2="163"/>
    <line x1="253" y1="157" x2="247" y2="163"/>

    <!-- Token 3 -->
    <circle cx="320" cy="155" r="11"/>
    <circle cx="320" cy="155" r="6"/>
    <path d="M317,152 v6 M323,152 v6"/>

    <!-- Token 4 -->
    <circle cx="550" cy="120" r="9"/>
    <circle cx="550" cy="120" r="5"/>

    <!-- Token 5 -->
    <circle cx="620" cy="100" r="8"/>
    <circle cx="620" cy="100" r="4"/>

    <!-- Small tokens -->
    <circle cx="400" cy="145" r="6"/>
    <circle cx="400" cy="145" r="3"/>
    <circle cx="480" cy="130" r="5"/>
    <circle cx="480" cy="130" r="2"/>
    <circle cx="700" cy="85" r="6"/>
    <circle cx="700" cy="85" r="3"/>
  </g>

  <!-- ==================== TRANSACTION FLOWS (animated) ==================== -->
  <g stroke="currentColor" stroke-width="0.8" stroke-dasharray="3,3" fill="none" opacity="0.5">
    <!-- From wallets down to merchants -->
    <path d="M140,123 Q140,180 180,220">
      <animate attributeName="stroke-dashoffset" values="0;12" dur="1.5s" repeatCount="indefinite"/>
    </path>
    <path d="M220,126 Q250,180 300,230">
      <animate attributeName="stroke-dashoffset" values="0;12" dur="1.8s" repeatCount="indefinite"/>
    </path>
    <path d="M351,136 Q380,180 420,220">
      <animate attributeName="stroke-dashoffset" values="0;12" dur="1.6s" repeatCount="indefinite"/>
    </path>
    <path d="M515,97 Q550,150 580,200">
      <animate attributeName="stroke-dashoffset" values="0;12" dur="2s" repeatCount="indefinite"/>
    </path>
    <!-- Up to blockchain -->
    <path d="M180,143 Q180,100 185,63">
      <animate attributeName="stroke-dashoffset" values="12;0" dur="1.5s" repeatCount="indefinite"/>
    </path>
    <path d="M320,144 Q340,100 345,63">
      <animate attributeName="stroke-dashoffset" values="12;0" dur="1.8s" repeatCount="indefinite"/>
    </path>
    <path d="M550,111 Q580,80 600,52">
      <animate attributeName="stroke-dashoffset" values="12;0" dur="1.6s" repeatCount="indefinite"/>
    </path>
  </g>

  <!-- ==================== SMART CONTRACTS ==================== -->
  <g stroke="currentColor" stroke-width="1.2" fill="none">
    <!-- Contract 1 -->
    <rect x="380" y="150" width="28" height="35" rx="2"/>
    <line x1="385" y1="158" x2="403" y2="158"/>
    <line x1="385" y1="165" x2="400" y2="165"/>
    <line x1="385" y1="172" x2="403" y2="172"/>
    <path d="M388,177 l3,3 l6,-6"/>

    <!-- Contract 2 -->
    <rect x="560" y="140" width="25" height="30" rx="2"/>
    <line x1="564" y1="147" x2="581" y2="147"/>
    <line x1="564" y1="153" x2="578" y2="153"/>
    <line x1="564" y1="159" x2="581" y2="159"/>
    <circle cx="572" cy="165" r="2" fill="currentColor"/>
  </g>

  <!-- ==================== QR CODES ==================== -->
  <g stroke="currentColor" stroke-width="1" fill="currentColor">
    <!-- QR 1 -->
    <rect x="140" y="180" width="20" height="20" fill="none" stroke-width="1.3"/>
    <rect x="143" y="183" width="4" height="4"/>
    <rect x="153" y="183" width="4" height="4"/>
    <rect x="143" y="193" width="4" height="4"/>
    <rect x="148" y="188" width="3" height="3"/>
    <rect x="152" y="192" width="2" height="2"/>

    <!-- QR 2 -->
    <rect x="430" y="200" width="18" height="18" fill="none" stroke-width="1.2"/>
    <rect x="433" y="203" width="3" height="3"/>
    <rect x="442" y="203" width="3" height="3"/>
    <rect x="433" y="212" width="3" height="3"/>
    <rect x="437" y="207" width="2" height="2"/>
    <rect x="440" y="211" width="2" height="2"/>

    <!-- QR 3 -->
    <rect x="680" y="180" width="16" height="16" fill="none" stroke-width="1.1"/>
    <rect x="682" y="182" width="3" height="3"/>
    <rect x="690" y="182" width="3" height="3"/>
    <rect x="682" y="190" width="3" height="3"/>
    <rect x="686" y="186" width="2" height="2"/>
  </g>

  <!-- ==================== STORES & MERCHANTS ==================== -->
  <!-- Store 1 - Cafe -->
  <g stroke="currentColor" stroke-width="1.2" fill="none">
    <rect x="100" y="220" width="55" height="45"/>
    <path d="M100,220 l27,-15 l28,15"/>
    <rect x="108" y="230" width="18" height="14"/>
    <rect x="132" y="240" width="15" height="25"/>
    <circle cx="135" cy="252" r="1.5"/>
    <path d="M112,235 v5 q0,2 3,2 q3,0 3,-2 v-5"/>
  </g>

  <!-- Store 2 - Shop -->
  <g stroke="currentColor" stroke-width="1.2" fill="none">
    <rect x="200" y="215" width="60" height="50"/>
    <rect x="200" y="200" width="60" height="15"/>
    <rect x="208" y="225" width="20" height="18"/>
    <rect x="235" y="225" width="18" height="18"/>
    <rect x="220" y="248" width="18" height="17"/>
    <circle cx="234" cy="256" r="1.5"/>
    <rect x="210" y="230" width="6" height="8"/>
    <rect x="237" y="228" width="8" height="6" rx="3"/>
  </g>

  <!-- Store 3 - Restaurant -->
  <g stroke="currentColor" stroke-width="1.2" fill="none">
    <rect x="300" y="225" width="50" height="40"/>
    <polygon points="298,225 325,205 352,225"/>
    <rect x="308" y="235" width="15" height="12"/>
    <rect x="330" y="240" width="12" height="25"/>
    <circle cx="339" cy="252" r="1.5"/>
    <line x1="312" y1="242" x2="318" y2="242"/>
    <line x1="315" y1="242" x2="315" y2="246"/>
  </g>

  <!-- Store 4 - Tech -->
  <g stroke="currentColor" stroke-width="1.1" fill="none">
    <rect x="400" y="230" width="45" height="35"/>
    <rect x="405" y="238" width="35" height="18"/>
    <rect x="408" y="242" width="8" height="10"/>
    <circle cx="425" cy="248" r="5"/>
    <rect x="433" y="244" width="5" height="8"/>
  </g>

  <!-- Store 5 -->
  <g stroke="currentColor" stroke-width="1.1" fill="none">
    <rect x="500" y="220" width="40" height="35"/>
    <path d="M500,220 l20,-12 l20,12"/>
    <rect x="507" y="228" width="12" height="10"/>
    <rect x="523" y="235" width="10" height="20"/>
    <circle cx="530" cy="245" r="1"/>
  </g>

  <!-- Store 6 -->
  <g stroke="currentColor" stroke-width="1.1" fill="none">
    <rect x="580" y="225" width="50" height="40"/>
    <rect x="588" y="235" width="15" height="12"/>
    <rect x="610" y="240" width="12" height="25"/>
    <line x1="592" y1="240" x2="598" y2="240"/>
  </g>

  <!-- Store 7 -->
  <g stroke="currentColor" stroke-width="1" fill="none">
    <rect x="670" y="210" width="45" height="38"/>
    <rect x="670" y="198" width="45" height="12"/>
    <rect x="678" y="218" width="12" height="10"/>
    <rect x="695" y="220" width="12" height="28"/>
  </g>

  <!-- Store 8 -->
  <g stroke="currentColor" stroke-width="1" fill="none">
    <rect x="760" y="220" width="38" height="32"/>
    <path d="M760,220 l19,-10 l19,10"/>
    <rect x="766" y="228" width="10" height="8"/>
    <rect x="780" y="232" width="10" height="20"/>
  </g>

  <!-- Store 9 (small) -->
  <g stroke="currentColor" stroke-width="0.9" fill="none">
    <rect x="830" y="225" width="32" height="28"/>
    <rect x="835" y="232" width="10" height="8"/>
    <rect x="848" y="235" width="8" height="18"/>
  </g>

  <!-- ==================== MARKET STALLS ==================== -->
  <g stroke="currentColor" stroke-width="1" fill="none">
    <!-- Stall 1 -->
    <rect x="120" y="300" width="40" height="25"/>
    <path d="M120,295 l20,-12 l20,12"/>
    <circle cx="130" cy="310" r="4"/>
    <circle cx="142" cy="312" r="3"/>
    <circle cx="152" cy="310" r="4"/>

    <!-- Stall 2 -->
    <rect x="200" y="305" width="35" height="22"/>
    <path d="M200,300 l17,-10 l18,10"/>
    <rect x="205" y="310" width="8" height="12"/>
    <rect x="216" y="312" width="6" height="10"/>
    <rect x="225" y="309" width="7" height="14"/>

    <!-- Stall 3 -->
    <rect x="280" y="300" width="38" height="24"/>
    <path d="M280,295 l19,-10 l19,10"/>
    <ellipse cx="292" cy="312" rx="6" ry="4"/>
    <ellipse cx="307" cy="312" rx="5" ry="4"/>
  </g>

  <!-- ==================== FOOD TRUCKS ==================== -->
  <g stroke="currentColor" stroke-width="1" fill="none">
    <!-- Truck 1 -->
    <rect x="360" y="295" width="45" height="30"/>
    <rect x="352" y="302" width="8" height="23"/>
    <circle cx="368" cy="328" r="5"/>
    <circle cx="395" cy="328" r="5"/>
    <rect x="370" y="300" width="28" height="14"/>
    <circle cx="384" cy="307" r="3"/>

    <!-- Truck 2 -->
    <rect x="600" y="290" width="40" height="28"/>
    <rect x="593" y="296" width="7" height="22"/>
    <circle cx="607" cy="320" r="4"/>
    <circle cx="632" cy="320" r="4"/>
    <rect x="605" y="294" width="25" height="12"/>
  </g>

  <!-- ==================== VENDING MACHINES ==================== -->
  <g stroke="currentColor" stroke-width="1.1" fill="none">
    <!-- Machine 1 -->
    <rect x="460" y="280" width="25" height="45"/>
    <rect x="464" y="286" width="17" height="22"/>
    <rect x="466" y="289" width="5" height="6" rx="1"/>
    <rect x="473" y="289" width="5" height="6" rx="1"/>
    <rect x="466" y="298" width="5" height="6" rx="1"/>
    <rect x="473" y="298" width="5" height="6" rx="1"/>
    <rect x="466" y="312" width="12" height="8" rx="1"/>

    <!-- Machine 2 -->
    <rect x="700" y="275" width="22" height="40"/>
    <rect x="703" y="280" width="16" height="20"/>
    <rect x="705" y="283" width="4" height="5"/>
    <rect x="711" y="283" width="4" height="5"/>
    <rect x="705" y="290" width="4" height="5"/>
    <rect x="711" y="290" width="4" height="5"/>
    <rect x="705" y="303" width="10" height="7"/>
  </g>

  <!-- ==================== ATMs / TERMINALS ==================== -->
  <g stroke="currentColor" stroke-width="1.2" fill="none">
    <!-- ATM 1 -->
    <rect x="170" y="280" width="22" height="38"/>
    <rect x="174" y="285" width="14" height="12"/>
    <circle cx="181" cy="290" r="3"/>
    <path d="M179,289 v2 M181,287 v4"/>
    <g stroke-width="0.8">
      <circle cx="176" cy="303" r="1.5"/>
      <circle cx="181" cy="303" r="1.5"/>
      <circle cx="186" cy="303" r="1.5"/>
      <circle cx="176" cy="309" r="1.5"/>
      <circle cx="181" cy="309" r="1.5"/>
      <circle cx="186" cy="309" r="1.5"/>
    </g>

    <!-- ATM 2 -->
    <rect x="540" y="280" width="20" height="35"/>
    <rect x="543" y="284" width="14" height="10"/>
    <circle cx="550" cy="289" r="2"/>
    <g stroke-width="0.7">
      <circle cx="546" cy="300" r="1.2"/>
      <circle cx="550" cy="300" r="1.2"/>
      <circle cx="554" cy="300" r="1.2"/>
      <circle cx="546" cy="305" r="1.2"/>
      <circle cx="550" cy="305" r="1.2"/>
      <circle cx="554" cy="305" r="1.2"/>
    </g>
  </g>

  <!-- ==================== PEOPLE ==================== -->
  <!-- Person template: circle head, line body, lines for limbs -->

  <!-- Paying at cafe -->
  <g stroke="currentColor" stroke-width="0.9" fill="none">
    <circle cx="95" cy="252" r="3"/>
    <line x1="95" y1="255" x2="95" y2="268"/>
    <line x1="95" y1="268" x2="92" y2="280"/>
    <line x1="95" y1="268" x2="98" y2="280"/>
    <line x1="95" y1="260" x2="100" y2="265"/>
    <line x1="95" y1="260" x2="90" y2="267"/>
    <rect x="98" y="262" width="5" height="8" rx="1"/>
  </g>

  <!-- At store 2 -->
  <g stroke="currentColor" stroke-width="0.9" fill="none">
    <circle cx="195" cy="255" r="3"/>
    <line x1="195" y1="258" x2="195" y2="270"/>
    <line x1="195" y1="270" x2="192" y2="282"/>
    <line x1="195" y1="270" x2="198" y2="282"/>
    <line x1="195" y1="262" x2="190" y2="268"/>
    <line x1="195" y1="262" x2="200" y2="265"/>
  </g>

  <!-- Leaving store with bag -->
  <g stroke="currentColor" stroke-width="0.9" fill="none">
    <circle cx="268" cy="255" r="3"/>
    <line x1="268" y1="258" x2="268" y2="270"/>
    <line x1="268" y1="270" x2="265" y2="282"/>
    <line x1="268" y1="270" x2="271" y2="282"/>
    <line x1="268" y1="262" x2="263" y2="268"/>
    <line x1="268" y1="262" x2="275" y2="265"/>
    <rect x="273" y="262" width="5" height="7"/>
    <path d="M274,262 q2,-2 3,0"/>
  </g>

  <!-- At restaurant -->
  <g stroke="currentColor" stroke-width="0.9" fill="none">
    <circle cx="358" cy="258" r="3"/>
    <line x1="358" y1="261" x2="358" y2="272"/>
    <line x1="358" y1="272" x2="355" y2="283"/>
    <line x1="358" y1="272" x2="361" y2="283"/>
    <line x1="358" y1="265" x2="353" y2="270"/>
    <line x1="358" y1="265" x2="363" y2="268"/>
  </g>

  <!-- At tech store -->
  <g stroke="currentColor" stroke-width="0.9" fill="none">
    <circle cx="450" cy="258" r="3"/>
    <line x1="450" y1="261" x2="450" y2="272"/>
    <line x1="450" y1="272" x2="447" y2="283"/>
    <line x1="450" y1="272" x2="453" y2="283"/>
    <line x1="450" y1="265" x2="445" y2="270"/>
    <line x1="450" y1="265" x2="455" y2="268"/>
    <rect x="453" y="265" width="4" height="7" rx="1"/>
  </g>

  <!-- At store 5 -->
  <g stroke="currentColor" stroke-width="0.9" fill="none">
    <circle cx="548" cy="250" r="3"/>
    <line x1="548" y1="253" x2="548" y2="264"/>
    <line x1="548" y1="264" x2="545" y2="275"/>
    <line x1="548" y1="264" x2="551" y2="275"/>
    <line x1="548" y1="257" x2="543" y2="262"/>
    <line x1="548" y1="257" x2="553" y2="260"/>
  </g>

  <!-- At vending machine -->
  <g stroke="currentColor" stroke-width="0.9" fill="none">
    <circle cx="452" cy="318" r="3"/>
    <line x1="452" y1="321" x2="452" y2="332"/>
    <line x1="452" y1="332" x2="449" y2="343"/>
    <line x1="452" y1="332" x2="455" y2="343"/>
    <line x1="452" y1="325" x2="460" y2="320"/>
    <line x1="452" y1="325" x2="447" y2="330"/>
  </g>

  <!-- At food truck queue -->
  <g stroke="currentColor" stroke-width="0.8" fill="none">
    <!-- Person 1 -->
    <circle cx="350" cy="335" r="2.5"/>
    <line x1="350" y1="337.5" x2="350" y2="347"/>
    <line x1="350" y1="347" x2="347" y2="356"/>
    <line x1="350" y1="347" x2="353" y2="356"/>
    <line x1="350" y1="340" x2="346" y2="345"/>
    <line x1="350" y1="340" x2="354" y2="343"/>
    <!-- Person 2 -->
    <circle cx="338" cy="337" r="2.5"/>
    <line x1="338" y1="339.5" x2="338" y2="349"/>
    <line x1="338" y1="349" x2="335" y2="358"/>
    <line x1="338" y1="349" x2="341" y2="358"/>
    <line x1="338" y1="342" x2="334" y2="347"/>
    <line x1="338" y1="342" x2="343" y2="345"/>
    <rect x="341" y="342" width="4" height="6" rx="0.5"/>
  </g>

  <!-- At market stall -->
  <g stroke="currentColor" stroke-width="0.8" fill="none">
    <circle cx="115" cy="318" r="2.5"/>
    <line x1="115" y1="320.5" x2="115" y2="330"/>
    <line x1="115" y1="330" x2="112" y2="340"/>
    <line x1="115" y1="330" x2="118" y2="340"/>
    <line x1="115" y1="323" x2="120" y2="315"/>
    <line x1="115" y1="323" x2="110" y2="328"/>
    <rect x="118" y="312" width="4" height="6" rx="0.5"/>
  </g>

  <!-- Vendor at stall -->
  <g stroke="currentColor" stroke-width="0.8" fill="none">
    <circle cx="140" cy="330" r="2.5"/>
    <line x1="140" y1="332.5" x2="140" y2="342"/>
    <line x1="140" y1="337" x2="135" y2="342"/>
    <line x1="140" y1="337" x2="145" y2="342"/>
  </g>

  <!-- More people at stall 2 -->
  <g stroke="currentColor" stroke-width="0.8" fill="none">
    <circle cx="195" cy="332" r="2.5"/>
    <line x1="195" y1="334.5" x2="195" y2="344"/>
    <line x1="195" y1="344" x2="192" y2="354"/>
    <line x1="195" y1="344" x2="198" y2="354"/>
    <line x1="195" y1="338" x2="200" y2="330"/>
    <line x1="195" y1="338" x2="190" y2="343"/>
  </g>

  <!-- At stall 3 -->
  <g stroke="currentColor" stroke-width="0.8" fill="none">
    <circle cx="275" cy="328" r="2.5"/>
    <line x1="275" y1="330.5" x2="275" y2="340"/>
    <line x1="275" y1="340" x2="272" y2="350"/>
    <line x1="275" y1="340" x2="278" y2="350"/>
    <line x1="275" y1="334" x2="270" y2="338"/>
    <line x1="275" y1="334" x2="280" y2="337"/>
  </g>

  <!-- At ATM -->
  <g stroke="currentColor" stroke-width="0.8" fill="none">
    <circle cx="163" cy="298" r="2.5"/>
    <line x1="163" y1="300.5" x2="163" y2="310"/>
    <line x1="163" y1="310" x2="160" y2="320"/>
    <line x1="163" y1="310" x2="166" y2="320"/>
    <line x1="163" y1="304" x2="170" y2="300"/>
    <line x1="163" y1="304" x2="158" y2="308"/>
  </g>

  <!-- At store 6 -->
  <g stroke="currentColor" stroke-width="0.8" fill="none">
    <circle cx="575" cy="258" r="2.5"/>
    <line x1="575" y1="260.5" x2="575" y2="270"/>
    <line x1="575" y1="270" x2="572" y2="280"/>
    <line x1="575" y1="270" x2="578" y2="280"/>
    <line x1="575" y1="264" x2="570" y2="268"/>
    <line x1="575" y1="264" x2="580" y2="267"/>
  </g>

  <!-- At store 7 -->
  <g stroke="currentColor" stroke-width="0.8" fill="none">
    <circle cx="665" cy="240" r="2.5"/>
    <line x1="665" y1="242.5" x2="665" y2="252"/>
    <line x1="665" y1="252" x2="662" y2="262"/>
    <line x1="665" y1="252" x2="668" y2="262"/>
    <line x1="665" y1="246" x2="660" y2="250"/>
    <line x1="665" y1="246" x2="670" y2="249"/>
  </g>

  <!-- At store 8 -->
  <g stroke="currentColor" stroke-width="0.8" fill="none">
    <circle cx="755" cy="245" r="2.5"/>
    <line x1="755" y1="247.5" x2="755" y2="257"/>
    <line x1="755" y1="257" x2="752" y2="267"/>
    <line x1="755" y1="257" x2="758" y2="267"/>
    <line x1="755" y1="251" x2="750" y2="255"/>
    <line x1="755" y1="251" x2="760" y2="254"/>
    <rect x="758" y="251" width="4" height="6" rx="0.5"/>
  </g>

  <!-- At vending machine 2 -->
  <g stroke="currentColor" stroke-width="0.8" fill="none">
    <circle cx="693" cy="300" r="2.5"/>
    <line x1="693" y1="302.5" x2="693" y2="312"/>
    <line x1="693" y1="312" x2="690" y2="322"/>
    <line x1="693" y1="312" x2="696" y2="322"/>
    <line x1="693" y1="306" x2="700" y2="302"/>
    <line x1="693" y1="306" x2="688" y2="310"/>
  </g>

  <!-- At ATM 2 -->
  <g stroke="currentColor" stroke-width="0.8" fill="none">
    <circle cx="533" cy="295" r="2.5"/>
    <line x1="533" y1="297.5" x2="533" y2="307"/>
    <line x1="533" y1="307" x2="530" y2="317"/>
    <line x1="533" y1="307" x2="536" y2="317"/>
    <line x1="533" y1="301" x2="540" y2="297"/>
    <line x1="533" y1="301" x2="528" y2="305"/>
  </g>

  <!-- Food truck 2 queue -->
  <g stroke="currentColor" stroke-width="0.8" fill="none">
    <circle cx="590" cy="315" r="2.5"/>
    <line x1="590" y1="317.5" x2="590" y2="327"/>
    <line x1="590" y1="327" x2="587" y2="337"/>
    <line x1="590" y1="327" x2="593" y2="337"/>
    <line x1="590" y1="321" x2="595" y2="318"/>
    <line x1="590" y1="321" x2="585" y2="325"/>
  </g>

  <!-- ==================== WALKING PEOPLE (background) ==================== -->
  <g stroke="currentColor" stroke-width="0.7" fill="none" opacity="0.6">
    <!-- Walker 1 -->
    <circle cx="60" cy="270" r="2"/>
    <line x1="60" y1="272" x2="60" y2="280"/>
    <line x1="60" y1="280" x2="58" y2="288"/>
    <line x1="60" y1="280" x2="62" y2="288"/>

    <!-- Walker 2 -->
    <circle cx="250" cy="288" r="2"/>
    <line x1="250" y1="290" x2="250" y2="298"/>
    <line x1="250" y1="298" x2="248" y2="306"/>
    <line x1="250" y1="298" x2="252" y2="306"/>

    <!-- Walker 3 -->
    <circle cx="420" cy="285" r="2"/>
    <line x1="420" y1="287" x2="420" y2="295"/>
    <line x1="420" y1="295" x2="418" y2="303"/>
    <line x1="420" y1="295" x2="422" y2="303"/>

    <!-- Walker 4 -->
    <circle cx="500" cy="270" r="2"/>
    <line x1="500" y1="272" x2="500" y2="280"/>
    <line x1="500" y1="280" x2="498" y2="288"/>
    <line x1="500" y1="280" x2="502" y2="288"/>

    <!-- Couple -->
    <circle cx="640" cy="280" r="2"/>
    <line x1="640" y1="282" x2="640" y2="290"/>
    <line x1="640" y1="290" x2="638" y2="298"/>
    <line x1="640" y1="290" x2="642" y2="298"/>
    <circle cx="648" cy="278" r="2"/>
    <line x1="648" y1="280" x2="648" y2="288"/>
    <line x1="648" y1="288" x2="646" y2="296"/>
    <line x1="648" y1="288" x2="650" y2="296"/>

    <!-- Walker 5 -->
    <circle cx="780" cy="275" r="2"/>
    <line x1="780" y1="277" x2="780" y2="285"/>
    <line x1="780" y1="285" x2="778" y2="293"/>
    <line x1="780" y1="285" x2="782" y2="293"/>

    <!-- Walker 6 -->
    <circle cx="850" cy="268" r="2"/>
    <line x1="850" y1="270" x2="850" y2="278"/>
    <line x1="850" y1="278" x2="848" y2="286"/>
    <line x1="850" y1="278" x2="852" y2="286"/>
  </g>

  <!-- ==================== BIKES & DELIVERY ==================== -->
  <g stroke="currentColor" stroke-width="0.9" fill="none">
    <!-- Bike 1 -->
    <circle cx="320" cy="355" r="8"/>
    <circle cx="350" cy="355" r="8"/>
    <line x1="320" y1="355" x2="335" y2="342"/>
    <line x1="335" y1="342" x2="350" y2="355"/>
    <line x1="335" y1="342" x2="335" y2="335"/>
    <line x1="331" y1="335" x2="339" y2="335"/>
    <!-- Rider -->
    <circle cx="335" cy="328" r="3"/>
    <line x1="335" y1="331" x2="335" y2="340"/>
    <line x1="335" y1="335" x2="330" y2="340"/>
    <line x1="335" y1="335" x2="340" y2="338"/>
    <!-- Delivery box -->
    <rect x="341" y="330" width="10" height="8"/>
    <line x1="343" y1="333" x2="349" y2="333"/>
  </g>

  <g stroke="currentColor" stroke-width="0.8" fill="none">
    <!-- Bike 2 -->
    <circle cx="750" cy="340" r="7"/>
    <circle cx="775" cy="340" r="7"/>
    <line x1="750" y1="340" x2="762" y2="328"/>
    <line x1="762" y1="328" x2="775" y2="340"/>
    <line x1="762" y1="328" x2="762" y2="322"/>
    <line x1="758" y1="322" x2="766" y2="322"/>
    <!-- Rider -->
    <circle cx="762" cy="315" r="2.5"/>
    <line x1="762" y1="317.5" x2="762" y2="326"/>
    <line x1="762" y1="320" x2="758" y2="325"/>
    <line x1="762" y1="320" x2="766" y2="323"/>
  </g>

  <!-- ==================== PAYMENT SIGNALS ==================== -->
  <g stroke="currentColor" stroke-width="0.8" fill="none" opacity="0.7">
    <!-- NFC waves -->
    <path d="M102,263 q3,-3 6,0"/>
    <path d="M104,260 q4,-4 8,0"/>

    <path d="M456,265 q3,-3 6,0"/>
    <path d="M458,262 q4,-4 8,0"/>

    <path d="M761,251 q3,-3 6,0"/>
    <path d="M763,248 q4,-4 8,0"/>

    <path d="M122,313 q2,-2 4,0"/>
    <path d="M123,311 q3,-3 6,0"/>

    <path d="M343,343 q2,-2 4,0"/>
    <path d="M344,341 q3,-3 6,0"/>
  </g>

  <!-- ==================== DECORATIVE ELEMENTS ==================== -->
  <!-- Trees/plants -->
  <g stroke="currentColor" stroke-width="0.8" fill="none" opacity="0.5">
    <line x1="50" y1="265" x2="50" y2="250"/>
    <circle cx="50" cy="245" r="6"/>

    <line x1="490" y1="265" x2="490" y2="252"/>
    <circle cx="490" cy="248" r="5"/>

    <line x1="730" y1="260" x2="730" y2="248"/>
    <circle cx="730" cy="244" r="5"/>

    <line x1="870" y1="255" x2="870" y2="243"/>
    <circle cx="870" cy="239" r="5"/>
  </g>

  <!-- ==================== BOTTOM LAYER - More Stalls & Activity ==================== -->
  <g stroke="currentColor" stroke-width="0.9" fill="none">
    <!-- Extra stalls row -->
    <rect x="420" y="350" width="35" height="22"/>
    <path d="M420,346 l17,-10 l18,10"/>
    <circle cx="430" cy="360" r="3"/>
    <circle cx="442" cy="362" r="3"/>

    <rect x="500" y="345" width="32" height="20"/>
    <path d="M500,341 l16,-8 l16,8"/>
    <rect x="505" y="350" width="6" height="10"/>
    <rect x="515" y="352" width="5" height="8"/>
    <rect x="523" y="350" width="6" height="10"/>

    <rect x="570" y="348" width="30" height="18"/>
    <path d="M570,344 l15,-8 l15,8"/>
    <ellipse cx="580" cy="356" rx="4" ry="3"/>
    <ellipse cx="592" cy="357" rx="4" ry="3"/>
  </g>

  <!-- People at bottom stalls -->
  <g stroke="currentColor" stroke-width="0.7" fill="none">
    <circle cx="415" cy="365" r="2"/>
    <line x1="415" y1="367" x2="415" y2="375"/>
    <line x1="415" y1="375" x2="413" y2="383"/>
    <line x1="415" y1="375" x2="417" y2="383"/>

    <circle cx="495" cy="360" r="2"/>
    <line x1="495" y1="362" x2="495" y2="370"/>
    <line x1="495" y1="370" x2="493" y2="378"/>
    <line x1="495" y1="370" x2="497" y2="378"/>

    <circle cx="565" cy="362" r="2"/>
    <line x1="565" y1="364" x2="565" y2="372"/>
    <line x1="565" y1="372" x2="563" y2="380"/>
    <line x1="565" y1="372" x2="567" y2="380"/>
    <rect x="568" y="368" width="3" height="5" rx="0.5"/>
  </g>

  <!-- ==================== KEYS / LOCKS / SECURITY ==================== -->
  <g stroke="currentColor" stroke-width="1" fill="none">
    <!-- Lock 1 -->
    <rect x="85" y="155" width="12" height="10" rx="1"/>
    <path d="M88,155 v-4 a3,3 0 0 1 6,0 v4"/>
    <circle cx="91" cy="160" r="1.5"/>

    <!-- Lock 2 -->
    <rect x="655" y="130" width="10" height="8" rx="1"/>
    <path d="M657,130 v-3 a3,3 0 0 1 6,0 v3"/>
    <circle cx="660" cy="134" r="1"/>

    <!-- Key -->
    <circle cx="800" cy="125" r="4"/>
    <line x1="804" y1="125" x2="815" y2="125"/>
    <line x1="812" y1="125" x2="812" y2="129"/>
    <line x1="815" y1="125" x2="815" y2="129"/>
  </g>

  <!-- ==================== RECEIPTS / CONFIRMATIONS ==================== -->
  <g stroke="currentColor" stroke-width="0.9" fill="none">
    <rect x="240" y="165" width="14" height="20"/>
    <line x1="243" y1="170" x2="251" y2="170"/>
    <line x1="243" y1="175" x2="250" y2="175"/>
    <line x1="243" y1="180" x2="248" y2="180"/>
    <path d="M245,182 l2,2 l4,-4"/>

    <rect x="600" y="155" width="12" height="18"/>
    <line x1="603" y1="160" x2="609" y2="160"/>
    <line x1="603" y1="165" x2="608" y2="165"/>
    <path d="M604,168 l2,2 l3,-3"/>
  </g>

  <!-- ==================== LIGHTNING (Instant Payments) ==================== -->
  <g stroke="currentColor" stroke-width="1" fill="currentColor">
    <path d="M130,155 l-5,10 h4 l-3,8 l8,-10 h-4 l3,-8z"/>
    <path d="M520,100 l-4,8 h3 l-2,6 l6,-8 h-3 l2,-6z"/>
    <path d="M680,120 l-4,8 h3 l-2,6 l6,-8 h-3 l2,-6z"/>
  </g>

  <!-- ==================== ADDITIONAL SMALL DETAILS ==================== -->
  <!-- Shopping carts -->
  <g stroke="currentColor" stroke-width="0.8" fill="none" opacity="0.6">
    <path d="M55,295 l3,0 l5,12 h12 l3,-9 h-17"/>
    <circle cx="63" cy="310" r="2"/>
    <circle cx="72" cy="310" r="2"/>

    <path d="M810,295 l3,0 l5,12 h12 l3,-9 h-17"/>
    <circle cx="818" cy="310" r="2"/>
    <circle cx="827" cy="310" r="2"/>
  </g>

  <!-- Small scattered coins -->
  <g stroke="currentColor" stroke-width="0.8" fill="none" opacity="0.5">
    <circle cx="220" cy="190" r="4"/>
    <circle cx="220" cy="190" r="2"/>
    <circle cx="440" cy="120" r="3"/>
    <circle cx="440" cy="120" r="1.5"/>
    <circle cx="580" cy="175" r="3"/>
    <circle cx="580" cy="175" r="1.5"/>
    <circle cx="750" cy="140" r="3"/>
    <circle cx="750" cy="140" r="1.5"/>
    <circle cx="840" cy="150" r="3"/>
    <circle cx="840" cy="150" r="1.5"/>
  </g>

  <!-- Connection dots showing network -->
  <g fill="currentColor" opacity="0.3">
    <circle cx="100" cy="170" r="1.5"/>
    <circle cx="200" cy="145" r="1.5"/>
    <circle cx="360" cy="130" r="1.5"/>
    <circle cx="470" cy="110" r="1.5"/>
    <circle cx="590" cy="115" r="1.5"/>
    <circle cx="720" cy="105" r="1.5"/>
    <circle cx="820" cy="115" r="1.5"/>
  </g>

  <!-- Dotted connection lines -->
  <g stroke="currentColor" stroke-width="0.5" stroke-dasharray="2,2" fill="none" opacity="0.25">
    <line x1="100" y1="170" x2="200" y2="145"/>
    <line x1="200" y1="145" x2="360" y2="130"/>
    <line x1="360" y1="130" x2="470" y2="110"/>
    <line x1="470" y1="110" x2="590" y2="115"/>
    <line x1="590" y1="115" x2="720" y2="105"/>
    <line x1="720" y1="105" x2="820" y2="115"/>
  </g>
</svg>